<?xml version="1.0" encoding="UTF-8" standalone="no"?>
<!-- Created with Inkscape (http://www.inkscape.org/) -->

<svg
   xmlns:dc="http://purl.org/dc/elements/1.1/"
   xmlns:cc="http://creativecommons.org/ns#"
   xmlns:rdf="http://www.w3.org/1999/02/22-rdf-syntax-ns#"
   xmlns:svg="http://www.w3.org/2000/svg"
   xmlns="http://www.w3.org/2000/svg"
   xmlns:sodipodi="http://sodipodi.sourceforge.net/DTD/sodipodi-0.dtd"
   xmlns:inkscape="http://www.inkscape.org/namespaces/inkscape"
   width="100mm"
   height="100mm"
   viewBox="0 0 100 100"
   version="1.1"
   id="svg33849"
   sodipodi:docname="cloud icon.svg"
   inkscape:version="0.92.3 (2405546, 2018-03-11)">
  <defs
     id="defs33843" />
  <sodipodi:namedview
     id="base"
     pagecolor="#ffffff"
     bordercolor="#666666"
     borderopacity="1.0"
     inkscape:pageopacity="0.0"
     inkscape:pageshadow="2"
     inkscape:zoom="0.98994949"
     inkscape:cx="75.536214"
     inkscape:cy="165.20309"
     inkscape:document-units="mm"
     inkscape:current-layer="layer1"
     showgrid="false"
     inkscape:snap-global="false"
     inkscape:window-width="1920"
     inkscape:window-height="1001"
     inkscape:window-x="-9"
     inkscape:window-y="-9"
     inkscape:window-maximized="1" />
  <metadata
     id="metadata33846">
    <rdf:RDF>
      <cc:Work
         rdf:about="">
        <dc:format>image/svg+xml</dc:format>
        <dc:type
           rdf:resource="http://purl.org/dc/dcmitype/StillImage" />
      </cc:Work>
    </rdf:RDF>
  </metadata>
  <g
     inkscape:label="Layer 1"
     inkscape:groupmode="layer"
     id="layer1"
     transform="translate(-31.503499,-8.2584005)">
    <path
       style="opacity:1;fill:#839496;fill-opacity:1;fill-rule:nonzero;stroke:#1a3e48;stroke-width:1.37509322;stroke-linecap:round;stroke-linejoin:round;stroke-miterlimit:4;stroke-dasharray:none;stroke-dashoffset:0;stroke-opacity:1;paint-order:normal"
       d="M 89.518002,9.243228 A 26.646498,26.23218 0 0 0 65.509771,24.170292 19.164109,19.486677 0 0 0 61.566593,23.746546 19.164109,19.486677 0 0 0 42.40234,43.23279 a 19.164109,19.486677 0 0 0 0.736693,5.330408 19.164109,19.486677 0 0 0 -10.92617,17.57358 19.164109,19.486677 0 0 0 17.574816,19.405938 v 0.0808 h 1.588926 61.231965 v -0.03383 A 19.164109,19.486677 0 0 0 130.83777,66.136778 19.164109,19.486677 0 0 0 113.54362,46.745485 26.646498,26.23218 0 0 0 116.16473,35.475061 26.646498,26.23218 0 0 0 89.518002,9.243228 Z"
       id="path34409"
       inkscape:connector-curvature="0" />
    <text
       xml:space="preserve"
       style="font-style:normal;font-variant:normal;font-weight:normal;font-stretch:normal;font-size:75.41843414px;line-height:1;font-family:Calibri;-inkscape-font-specification:Calibri;letter-spacing:0px;word-spacing:0px;fill:#fdf6e3;fill-opacity:1;stroke:none;stroke-width:2.35682607"
       x="65.919594"
       y="79.77578"
       id="text34458"><tspan
         sodipodi:role="line"
         id="tspan34456"
         x="65.919594"
         y="79.77578"
         style="font-weight:bold;fill:#fdf6e3;fill-opacity:1;stroke-width:2.35682607">?</tspan></text>
    <path
       style="opacity:1;fill:#839496;fill-opacity:1;fill-rule:nonzero;stroke:#1c404a;stroke-width:1.38999999;stroke-linecap:round;stroke-linejoin:round;stroke-miterlimit:4;stroke-dasharray:none;stroke-dashoffset:0;stroke-opacity:1;paint-order:normal"
       d="m 52.543302,104.02563 c -0.94849,2.92934 -4.092093,4.53514 -7.021435,3.58665 -2.929341,-0.94849 -4.535137,-4.0921 -3.586645,-7.02145 0.94849,-2.92936 9.3604,-9.583362 9.3604,-9.583362 0,0 2.196171,10.088812 1.24768,13.018162 z"
       id="path34489"
       inkscape:connector-curvature="0"
       sodipodi:nodetypes="ssscs" />
    <path
       style="opacity:1;fill:#839496;fill-opacity:1;fill-rule:nonzero;stroke:#1c404a;stroke-width:1.38999999;stroke-linecap:round;stroke-linejoin:round;stroke-miterlimit:4;stroke-dasharray:none;stroke-dashoffset:0;stroke-opacity:1;paint-order:normal"
       d="m 72.656581,104.02563 c -0.94849,2.92934 -4.092093,4.53514 -7.021435,3.58665 -2.929341,-0.94849 -4.535137,-4.0921 -3.586645,-7.02145 0.94849,-2.929358 9.3604,-9.58336 9.3604,-9.58336 0,0 2.196172,10.08881 1.24768,13.01816 z"
       id="path34489-3"
       inkscape:connector-curvature="0"
       sodipodi:nodetypes="ssscs" />
    <path
       style="opacity:1;fill:#839496;fill-opacity:1;fill-rule:nonzero;stroke:#1c404a;stroke-width:1.38999999;stroke-linecap:round;stroke-linejoin:round;stroke-miterlimit:4;stroke-dasharray:none;stroke-dashoffset:0;stroke-opacity:1;paint-order:normal"
       d="m 92.76986,104.02563 c -0.94849,2.92934 -4.092093,4.53514 -7.021435,3.58665 -2.929341,-0.94849 -4.535137,-4.0921 -3.586645,-7.02145 0.94849,-2.929358 9.3604,-9.583359 9.3604,-9.583359 0,0 2.196172,10.088809 1.24768,13.018159 z"
       id="path34489-4"
       inkscape:connector-curvature="0"
       sodipodi:nodetypes="ssscs" />
    <path
       style="opacity:1;fill:#839496;fill-opacity:1;fill-rule:nonzero;stroke:#1c404a;stroke-width:1.38999999;stroke-linecap:round;stroke-linejoin:round;stroke-miterlimit:4;stroke-dasharray:none;stroke-dashoffset:0;stroke-opacity:1;paint-order:normal"
       d="m 112.88314,104.02563 c -0.94849,2.92934 -4.09209,4.53514 -7.02143,3.58665 -2.92934,-0.94849 -4.53514,-4.0921 -3.58665,-7.02146 0.94849,-2.929352 9.3604,-9.583351 9.3604,-9.583351 0,0 2.19617,10.088811 1.24768,13.018161 z"
       id="path34489-01"
       inkscape:connector-curvature="0"
       sodipodi:nodetypes="ssscs" />
    <path
       style="opacity:1;fill:#4b5559;fill-opacity:1;fill-rule:nonzero;stroke:none;stroke-width:0.49002716;stroke-linecap:round;stroke-linejoin:round;stroke-miterlimit:4;stroke-dasharray:none;stroke-dashoffset:0;stroke-opacity:1;paint-order:normal"
       d="m 31.696186,65.567165 c -0.003,0.12831 -0.0047,0.256646 -0.0052,0.38499 0.007,10.240271 7.72925,18.767134 17.765323,19.616372 v 0.08165 h 1.606103 61.895968 v -0.03411 c 10.31509,-0.512312 18.42125,-9.162701 18.42678,-19.663915 -0.005,-0.12839 -0.0115,-0.256726 -0.0191,-0.38499 C 126.91743,82.681041 115.44044,83.328881 80.642304,82.94836 49.155488,82.604049 37.347189,83.475596 31.696186,65.567165 Z"
       id="path34409-6"
       inkscape:connector-curvature="0"
       sodipodi:nodetypes="cccccccccsc" />
  </g>
</svg>
